# xmcd
#
# Track frame offsets:
#	150
#	24091
#	37975
#	77021
#	89545
#	106293
#	120716
#
# Disc length: 2079 seconds
#
# Revision: 0
# Processed by: cddbd v1.5.1PL0 Copyright (c) Steve Scherf et al.
# Submitted via: audiograbber 1.83.01
#
DISCID=47081d07
DTITLE=Creedence Clearwater Revival - Bayou Country
DYEAR=1900
DGENRE=Blues
TTITLE0=Born On The Bayou
TTITLE1=Bootleg
TTITLE2=Graveyard Train
TTITLE3=Good Golly Miss Molly
TTITLE4=Penthouse Pauper
TTITLE5=Proud Mary
TTITLE6=Keep On Chooglin'
EXTD=
EXTT0=
EXTT1=
EXTT2=
EXTT3=
EXTT4=
EXTT5=
EXTT6=
PLAYORDER=
